<?xml version="1.0" standalone="no"?>
<!DOCTYPE svg PUBLIC "-//W3C//DTD SVG 20010904//EN"
 "http://www.w3.org/TR/2001/REC-SVG-20010904/DTD/svg10.dtd">
<svg version="1.0" xmlns="http://www.w3.org/2000/svg"
 width="128.000000pt" height="128.000000pt" viewBox="0 0 128.000000 128.000000"
 preserveAspectRatio="xMidYMid meet">

<g transform="translate(0.000000,128.000000) scale(0.100000,-0.100000)"
fill="#000000" stroke="none">
<path d="M345 1274 c-201 -28 -272 -49 -317 -95 l-28 -27 0 -425 c0 -407 1
-425 20 -449 36 -47 159 -83 353 -103 l57 -6 0 -65 c0 -110 -26 -104 423 -104
l384 0 21 23 c21 23 22 30 22 276 l0 252 -25 24 c-21 22 -33 25 -90 25 -50 0
-67 -4 -72 -15 -9 -24 3 -30 75 -35 l67 -5 3 -241 c2 -196 0 -243 -12 -253
-10 -8 -116 -11 -382 -9 l-369 3 -3 252 -2 253 282 2 c275 3 283 4 283 23 0
17 -8 20 -47 23 l-48 3 0 273 c0 256 -1 275 -20 298 -25 33 -103 66 -198 84
-76 15 -318 26 -377 18z"/>
<path d="M602 440 c-27 -11 -55 -71 -45 -97 10 -29 45 -63 65 -63 53 0 80 -57
38 -80 -23 -12 -60 2 -60 24 0 21 -24 38 -37 25 -29 -29 25 -99 78 -99 74 0
111 99 54 147 -14 13 -37 23 -49 23 -30 0 -48 22 -44 52 2 19 9 23 38 23 28 0
35 -4 40 -25 6 -27 34 -39 43 -17 9 23 -21 77 -48 87 -31 12 -42 12 -73 0z"/>
<path d="M801 424 c-31 -26 -31 -26 -31 -125 0 -93 2 -102 25 -125 21 -21 32
-24 82 -21 l58 2 3 118 4 117 -30 30 c-38 37 -71 38 -111 4z m89 -43 c5 -11
10 -49 10 -85 0 -59 -2 -65 -22 -68 -16 -2 -22 -9 -20 -20 4 -22 -11 -23 -32
-2 -20 19 -23 163 -4 182 18 18 56 14 68 -7z"/>
<path d="M985 438 c-3 -8 -4 -75 -3 -149 l3 -134 80 0 c67 0 80 3 83 17 3 14
-7 17 -60 20 l-63 3 -5 124 c-3 87 -9 126 -17 129 -7 2 -15 -3 -18 -10z"/>
</g>
</svg>
